<svg id="svg" version="1.1" xmlns="http://www.w3.org/2000/svg" xmlns:xlink="http://www.w3.org/1999/xlink" width="400" height="400" viewBox="0, 0, 400,400"><g id="svgg"><path id="path0" d="M293.188 41.833 C 293.433 42.235,290.784 44.559,290.439 44.245 C 290.258 44.080,290.218 44.136,290.351 44.370 C 290.683 44.954,289.500 46.559,288.975 46.235 C 288.742 46.091,288.659 46.147,288.791 46.360 C 289.129 46.908,287.926 48.505,287.413 48.188 C 287.174 48.041,287.100 48.106,287.242 48.337 C 287.546 48.828,284.512 52.586,283.936 52.432 C 283.716 52.373,283.654 52.516,283.798 52.749 C 284.134 53.293,282.838 54.750,282.309 54.423 C 282.090 54.287,282.018 54.350,282.150 54.563 C 282.488 55.111,281.285 56.708,280.772 56.391 C 280.536 56.246,280.459 56.309,280.598 56.534 C 280.939 57.086,279.340 59.057,278.815 58.732 C 278.584 58.590,278.503 58.647,278.634 58.860 C 278.973 59.408,277.769 61.005,277.257 60.688 C 277.020 60.542,276.943 60.606,277.083 60.832 C 277.424 61.383,274.257 65.304,273.733 64.980 C 273.498 64.835,273.430 64.906,273.577 65.145 C 273.893 65.656,270.738 69.390,270.146 69.206 C 269.915 69.134,269.853 69.202,270.008 69.357 C 270.421 69.770,268.765 71.930,268.269 71.624 C 268.034 71.478,267.960 71.545,268.102 71.774 C 268.405 72.265,265.371 76.023,264.796 75.869 C 264.575 75.810,264.495 75.924,264.618 76.122 C 264.899 76.578,261.819 80.311,261.280 80.166 C 261.060 80.107,260.973 80.210,261.087 80.395 C 261.404 80.907,260.163 82.472,259.679 82.173 C 259.445 82.029,259.362 82.085,259.494 82.298 C 259.832 82.846,258.629 84.443,258.116 84.126 C 257.883 83.982,257.800 84.038,257.931 84.251 C 258.270 84.799,257.066 86.396,256.554 86.079 C 256.320 85.935,256.237 85.992,256.369 86.205 C 256.660 86.676,252.845 91.256,252.288 91.104 C 252.072 91.045,251.994 91.156,252.114 91.351 C 252.433 91.867,250.795 93.805,250.299 93.498 C 250.068 93.355,249.987 93.413,250.119 93.626 C 250.457 94.174,249.254 95.771,248.741 95.454 C 248.508 95.310,248.425 95.366,248.556 95.579 C 248.895 96.127,247.691 97.724,247.179 97.407 C 246.943 97.261,246.865 97.324,247.004 97.549 C 247.301 98.029,245.003 101.025,244.458 100.869 C 244.252 100.810,244.172 100.907,244.282 101.084 C 244.566 101.544,241.801 104.909,241.266 104.753 C 241.021 104.681,240.947 104.749,241.102 104.904 C 241.515 105.317,239.858 107.477,239.363 107.171 C 239.131 107.028,239.050 107.085,239.181 107.298 C 239.520 107.846,238.316 109.443,237.804 109.126 C 237.565 108.978,237.490 109.044,237.633 109.274 C 237.927 109.749,234.912 113.525,234.356 113.379 C 234.152 113.325,234.028 113.440,234.082 113.633 C 234.248 114.232,231.194 117.980,230.759 117.711 C 230.533 117.572,230.456 117.632,230.587 117.845 C 230.926 118.393,229.722 119.990,229.210 119.673 C 228.973 119.527,228.897 119.590,229.036 119.816 C 229.356 120.334,226.227 124.299,225.737 123.996 C 225.536 123.872,225.420 123.941,225.479 124.151 C 225.653 124.768,222.613 128.535,222.165 128.258 C 221.939 128.118,221.867 128.186,222.004 128.408 C 222.304 128.894,217.705 134.616,217.137 134.463 C 216.918 134.404,216.837 134.515,216.958 134.710 C 217.277 135.226,215.639 137.164,215.143 136.857 C 214.912 136.715,214.831 136.772,214.962 136.985 C 215.301 137.533,214.097 139.130,213.585 138.813 C 213.346 138.666,213.272 138.731,213.414 138.962 C 213.718 139.453,210.683 143.211,210.108 143.057 C 209.888 142.998,209.801 143.101,209.916 143.286 C 210.232 143.798,208.991 145.363,208.507 145.063 C 208.271 144.918,208.193 144.981,208.332 145.205 C 208.632 145.691,204.033 151.413,203.465 151.260 C 203.246 151.201,203.159 151.302,203.272 151.485 C 203.557 151.945,200.387 155.695,199.849 155.534 C 199.610 155.462,199.541 155.530,199.695 155.685 C 200.109 156.098,198.452 158.258,197.957 157.952 C 197.725 157.809,197.643 157.866,197.775 158.079 C 198.124 158.644,196.905 160.217,196.360 159.905 C 196.106 159.759,196.025 159.781,196.180 159.952 C 196.583 160.398,194.946 162.561,194.441 162.249 C 194.206 162.103,194.132 162.170,194.274 162.399 C 194.577 162.890,191.543 166.648,190.967 166.494 C 190.747 166.435,190.665 166.546,190.786 166.741 C 191.105 167.257,189.467 169.195,188.971 168.889 C 188.737 168.744,188.663 168.811,188.805 169.040 C 189.108 169.531,186.074 173.289,185.499 173.135 C 185.278 173.076,185.191 173.178,185.305 173.361 C 185.579 173.805,180.565 179.913,180.039 179.775 C 179.814 179.716,179.728 179.828,179.849 180.023 C 180.148 180.507,176.978 184.436,176.518 184.152 C 176.317 184.028,176.194 184.071,176.245 184.248 C 176.410 184.823,175.363 186.357,174.971 186.115 C 174.761 185.985,174.638 186.051,174.697 186.260 C 174.871 186.878,171.832 190.645,171.384 190.367 C 171.158 190.228,171.081 190.288,171.212 190.501 C 171.551 191.049,170.347 192.646,169.835 192.329 C 169.599 192.183,169.522 192.246,169.661 192.472 C 169.982 192.991,168.417 195.004,167.928 194.701 C 167.725 194.576,167.600 194.618,167.651 194.795 C 167.836 195.438,166.754 196.895,166.289 196.628 C 166.031 196.480,165.947 196.499,166.102 196.671 C 166.480 197.089,164.884 199.290,164.414 198.999 C 164.210 198.873,164.091 198.943,164.150 199.153 C 164.332 199.803,161.329 203.563,160.860 203.273 C 160.613 203.119,160.535 203.181,160.680 203.415 C 160.983 203.906,157.949 207.664,157.374 207.510 C 157.153 207.451,157.067 207.554,157.181 207.739 C 157.508 208.268,156.251 209.810,155.735 209.514 C 155.481 209.369,155.400 209.390,155.555 209.561 C 155.958 210.008,154.321 212.170,153.816 211.858 C 153.584 211.715,153.503 211.772,153.634 211.985 C 153.973 212.533,152.769 214.130,152.257 213.813 C 152.018 213.666,151.944 213.731,152.086 213.962 C 152.413 214.490,149.332 218.206,148.711 218.034 C 148.453 217.962,148.369 218.030,148.524 218.185 C 148.953 218.615,147.277 220.753,146.747 220.450 C 146.495 220.305,146.416 220.327,146.570 220.499 C 146.974 220.945,145.337 223.108,144.832 222.796 C 144.579 222.640,144.524 222.719,144.693 222.993 C 145.001 223.490,141.940 227.215,141.360 227.051 C 141.170 226.997,141.053 227.085,141.099 227.246 C 141.267 227.841,140.181 229.310,139.764 229.052 C 139.523 228.903,139.442 228.962,139.580 229.186 C 139.716 229.406,139.460 230.005,139.010 230.516 C 138.561 231.027,137.754 232.015,137.217 232.711 C 136.680 233.407,136.058 233.863,135.834 233.725 C 135.610 233.586,135.540 233.658,135.680 233.884 C 135.983 234.375,132.949 238.133,132.374 237.979 C 132.153 237.920,132.073 238.033,132.196 238.231 C 132.500 238.724,129.374 242.415,128.789 242.253 C 128.531 242.181,128.447 242.249,128.602 242.404 C 129.015 242.817,127.358 244.977,126.863 244.671 C 126.630 244.527,126.553 244.591,126.692 244.816 C 127.033 245.367,125.433 247.338,124.908 247.014 C 124.678 246.871,124.596 246.929,124.728 247.142 C 125.067 247.689,123.863 249.286,123.350 248.970 C 123.114 248.824,123.037 248.887,123.177 249.112 C 123.517 249.664,121.918 251.635,121.393 251.311 C 121.159 251.166,121.085 251.233,121.227 251.462 C 121.530 251.953,118.496 255.711,117.921 255.557 C 117.700 255.498,117.614 255.601,117.728 255.786 C 118.025 256.266,116.819 257.872,116.370 257.595 C 116.164 257.468,116.038 257.509,116.089 257.686 C 116.266 258.301,115.193 259.786,114.764 259.521 C 114.527 259.374,114.440 259.429,114.572 259.642 C 114.910 260.189,113.707 261.786,113.194 261.470 C 112.961 261.325,112.878 261.382,113.009 261.595 C 113.348 262.143,112.144 263.740,111.632 263.423 C 111.398 263.279,111.315 263.335,111.447 263.548 C 111.785 264.096,110.582 265.693,110.069 265.376 C 109.836 265.232,109.752 265.287,109.882 265.498 C 110.013 265.709,109.625 266.483,109.021 267.218 C 107.452 269.127,107.219 270.145,108.062 271.406 C 108.450 271.986,108.737 272.568,108.699 272.698 C 108.662 272.828,109.370 272.770,110.273 272.568 C 111.175 272.366,112.293 272.171,112.756 272.135 C 113.219 272.100,113.497 271.909,113.375 271.711 C 113.252 271.512,113.452 271.466,113.823 271.609 C 114.192 271.750,114.398 271.711,114.281 271.521 C 114.002 271.070,117.111 269.829,117.664 270.170 C 117.903 270.318,117.979 270.254,117.836 270.024 C 117.528 269.525,120.575 268.234,121.180 268.608 C 121.424 268.759,121.494 268.691,121.344 268.448 C 121.027 267.936,122.465 267.414,123.104 267.809 C 123.376 267.977,123.453 267.920,123.297 267.667 C 122.980 267.155,124.418 266.633,125.057 267.027 C 125.327 267.194,125.406 267.139,125.253 266.890 C 124.932 266.370,128.695 265.058,129.348 265.462 C 129.656 265.652,129.703 265.576,129.491 265.233 C 129.255 264.851,129.390 264.777,130.018 264.941 C 130.558 265.082,130.768 265.012,130.604 264.746 C 130.439 264.479,130.649 264.409,131.189 264.550 C 131.730 264.692,131.940 264.622,131.775 264.355 C 131.611 264.089,131.821 264.019,132.361 264.160 C 132.825 264.281,133.119 264.243,133.015 264.075 C 132.745 263.638,136.170 262.747,136.748 263.104 C 137.050 263.291,137.130 263.241,136.964 262.971 C 136.641 262.449,139.173 261.890,139.879 262.326 C 140.202 262.526,140.254 262.457,140.041 262.113 C 139.805 261.731,139.981 261.654,140.750 261.801 C 141.313 261.909,141.692 261.865,141.593 261.704 C 141.073 260.864,155.300 258.947,162.305 258.913 C 169.350 258.879,179.022 260.583,178.311 261.733 C 178.186 261.935,178.332 262.005,178.635 261.889 C 179.747 261.462,184.012 264.387,183.820 265.446 C 183.595 266.683,175.852 276.798,175.259 276.628 C 175.009 276.556,174.930 276.623,175.084 276.777 C 175.506 277.199,174.634 278.577,174.139 278.271 C 173.873 278.107,173.818 278.184,173.997 278.472 C 174.367 279.072,173.491 280.151,172.905 279.816 C 172.661 279.676,172.587 279.701,172.740 279.872 C 173.153 280.329,172.299 281.707,171.795 281.396 C 171.545 281.241,171.474 281.307,171.626 281.553 C 172.036 282.217,171.448 282.389,167.327 282.806 C 160.299 283.518,127.589 286.356,120.313 286.885 C 118.701 287.002,114.865 287.292,111.788 287.529 C 108.711 287.767,105.723 287.852,105.148 287.719 C 104.331 287.529,104.230 287.570,104.688 287.902 C 105.138 288.229,104.897 288.298,103.646 288.199 C 102.751 288.129,102.102 288.207,102.204 288.372 C 102.375 288.648,101.667 288.818,100.504 288.779 C 100.243 288.771,100.068 288.883,100.113 289.029 C 100.219 289.370,98.186 291.806,97.974 291.594 C 97.886 291.506,97.937 292.614,98.087 294.057 C 98.237 295.499,98.262 296.839,98.143 297.033 C 98.020 297.233,98.150 297.248,98.444 297.067 C 98.822 296.832,98.892 296.926,98.704 297.417 C 98.530 297.869,98.594 297.996,98.899 297.808 C 99.212 297.614,99.264 297.755,99.069 298.264 C 98.914 298.669,98.912 298.874,99.065 298.721 C 99.472 298.314,100.486 299.920,100.158 300.452 C 99.996 300.714,100.050 300.796,100.288 300.650 C 100.717 300.384,102.083 302.171,102.083 302.998 C 102.083 303.264,102.202 303.408,102.347 303.318 C 102.672 303.117,104.519 305.542,104.379 305.986 C 104.323 306.163,104.432 306.213,104.621 306.096 C 104.992 305.866,106.899 307.705,106.738 308.137 C 106.685 308.281,106.772 308.399,106.934 308.399 C 107.617 308.400,109.753 310.252,109.515 310.637 C 109.371 310.869,109.426 310.952,109.636 310.822 C 110.125 310.520,113.748 313.075,113.369 313.453 C 113.214 313.609,113.262 313.688,113.477 313.627 C 114.204 313.422,115.639 314.114,115.375 314.542 C 115.225 314.785,115.295 314.853,115.539 314.701 C 116.110 314.349,119.557 316.049,119.256 316.535 C 119.121 316.754,119.222 316.792,119.494 316.624 C 120.219 316.176,122.348 317.191,122.091 317.861 C 121.972 318.170,121.875 318.497,121.875 318.587 C 121.875 318.676,119.824 318.750,117.317 318.750 C 112.221 318.750,107.670 318.124,108.070 317.478 C 108.220 317.234,108.136 317.183,107.863 317.351 C 107.277 317.714,105.005 317.232,105.271 316.802 C 105.380 316.624,105.091 316.578,104.627 316.700 C 103.999 316.864,103.865 316.789,104.101 316.407 C 104.312 316.067,104.265 315.989,103.963 316.176 C 103.324 316.571,101.887 316.048,102.203 315.537 C 102.360 315.283,102.282 315.226,102.010 315.395 C 101.371 315.789,99.934 315.267,100.250 314.755 C 100.406 314.502,100.329 314.445,100.057 314.613 C 99.418 315.008,97.980 314.486,98.297 313.974 C 98.453 313.721,98.376 313.664,98.104 313.832 C 97.465 314.227,96.027 313.705,96.344 313.193 C 96.498 312.943,96.423 312.882,96.161 313.045 C 95.916 313.196,94.329 312.881,92.633 312.345 C 87.026 310.574,83.157 310.050,77.148 310.248 C 71.641 310.430,70.450 310.657,63.974 312.753 C 62.315 313.290,60.749 313.602,60.496 313.445 C 60.226 313.278,60.139 313.328,60.286 313.566 C 60.607 314.086,56.077 315.805,55.433 315.408 C 55.149 315.232,55.058 315.277,55.208 315.519 C 55.534 316.047,53.328 316.962,52.660 316.577 C 52.379 316.414,52.284 316.430,52.449 316.612 C 52.822 317.022,46.495 320.365,45.966 320.038 C 45.755 319.908,45.696 319.984,45.834 320.208 C 46.147 320.714,45.163 321.584,44.726 321.188 C 44.550 321.029,44.506 321.076,44.629 321.292 C 44.751 321.509,44.714 322.439,44.546 323.359 C 44.377 324.278,44.332 324.939,44.445 324.826 C 44.557 324.714,44.853 324.900,45.102 325.240 C 45.544 325.845,48.985 326.742,48.625 326.158 C 48.369 325.745,49.583 325.333,50.133 325.647 C 50.382 325.790,50.455 325.762,50.294 325.585 C 49.905 325.155,52.273 323.738,52.818 324.075 C 53.094 324.246,53.132 324.156,52.926 323.822 C 52.692 323.443,52.786 323.374,53.277 323.562 C 53.728 323.735,53.856 323.672,53.667 323.367 C 53.479 323.062,53.606 322.998,54.058 323.171 C 54.509 323.345,54.637 323.281,54.448 322.976 C 54.260 322.671,54.387 322.607,54.839 322.781 C 55.208 322.922,55.415 322.885,55.299 322.697 C 55.006 322.224,57.266 321.342,57.849 321.702 C 58.120 321.870,58.223 321.833,58.089 321.616 C 57.789 321.130,60.392 320.171,60.996 320.544 C 61.268 320.712,61.344 320.654,61.185 320.396 C 60.743 319.682,70.438 316.671,73.301 316.633 C 74.622 316.616,75.501 316.472,75.254 316.315 C 74.420 315.782,81.529 316.011,84.820 316.623 C 88.459 317.300,93.393 318.770,93.181 319.113 C 93.105 319.236,93.422 319.353,93.885 319.373 C 94.348 319.393,96.177 319.947,97.950 320.604 C 99.722 321.260,102.051 322.008,103.125 322.266 C 104.198 322.523,104.994 322.867,104.894 323.029 C 104.793 323.192,105.171 323.237,105.734 323.129 C 106.296 323.022,106.660 323.091,106.541 323.283 C 106.272 323.718,107.323 323.786,116.675 323.942 C 120.798 324.010,124.095 323.944,124.003 323.795 C 123.766 323.411,126.482 322.951,127.020 323.284 C 127.270 323.438,127.358 323.386,127.222 323.165 C 126.923 322.683,129.920 321.731,130.537 322.113 C 130.797 322.273,130.873 322.213,130.721 321.967 C 130.401 321.450,132.998 320.530,133.646 320.931 C 133.911 321.094,134.001 321.047,133.860 320.818 C 133.569 320.347,136.651 319.053,137.224 319.407 C 137.469 319.558,137.498 319.454,137.301 319.135 C 137.067 318.756,137.161 318.686,137.652 318.874 C 138.020 319.016,138.228 318.980,138.114 318.796 C 137.829 318.335,141.275 317.060,141.848 317.414 C 142.124 317.585,142.204 317.531,142.049 317.279 C 141.725 316.755,144.293 315.862,145.339 316.136 C 145.810 316.259,145.998 316.177,145.838 315.918 C 145.665 315.637,146.075 315.582,147.107 315.748 C 147.960 315.885,148.405 315.851,148.116 315.671 C 147.382 315.213,150.488 314.844,155.084 314.844 C 159.105 314.844,161.432 315.141,161.138 315.616 C 161.041 315.774,161.421 315.815,161.984 315.707 C 162.754 315.560,162.929 315.637,162.693 316.019 C 162.484 316.358,162.533 316.432,162.840 316.242 C 163.426 315.880,165.698 316.362,165.433 316.792 C 165.323 316.970,165.613 317.015,166.076 316.894 C 166.649 316.744,166.831 316.817,166.642 317.121 C 166.475 317.392,166.567 317.494,166.874 317.380 C 167.425 317.175,172.794 318.873,172.506 319.161 C 172.313 319.354,172.129 319.338,179.944 319.794 C 182.985 319.972,185.404 320.005,185.318 319.867 C 185.087 319.494,187.827 319.059,188.386 319.380 C 188.650 319.532,188.739 319.515,188.583 319.342 C 188.215 318.935,194.125 316.357,194.689 316.679 C 194.925 316.813,194.986 316.778,194.827 316.602 C 194.415 316.148,195.993 315.131,196.583 315.470 C 196.851 315.624,196.947 315.613,196.795 315.445 C 196.471 315.085,202.008 310.929,202.451 311.201 C 202.618 311.303,202.705 311.239,202.646 311.059 C 202.504 310.626,210.146 302.901,210.592 303.027 C 210.782 303.081,210.894 302.970,210.840 302.781 C 210.660 302.147,212.523 299.969,213.008 300.247 C 213.266 300.395,213.350 300.376,213.195 300.204 C 212.776 299.740,214.432 297.601,214.971 297.910 C 215.223 298.054,215.304 298.033,215.150 297.863 C 214.722 297.388,215.597 296.033,216.133 296.341 C 216.391 296.489,216.476 296.470,216.322 296.300 C 215.909 295.843,216.764 294.465,217.267 294.776 C 217.525 294.935,217.588 294.864,217.425 294.600 C 217.078 294.038,218.742 291.746,219.263 292.068 C 219.477 292.200,219.538 292.124,219.399 291.899 C 219.260 291.674,219.949 290.317,220.930 288.883 C 225.607 282.053,224.569 281.379,211.321 282.642 C 207.799 282.977,204.601 283.170,204.216 283.069 C 203.830 282.968,203.613 283.045,203.733 283.240 C 203.854 283.434,203.513 283.594,202.976 283.594 C 202.439 283.594,201.891 283.418,201.758 283.203 C 201.625 282.988,201.732 282.812,201.995 282.813 C 202.259 282.813,202.355 282.694,202.210 282.549 C 201.862 282.201,204.735 281.204,205.391 281.445 C 205.671 281.548,205.800 281.471,205.679 281.274 C 205.392 280.809,206.886 280.333,207.479 280.699 C 207.751 280.867,207.828 280.810,207.672 280.557 C 207.355 280.045,208.793 279.523,209.432 279.918 C 209.692 280.079,209.782 280.030,209.641 279.802 C 209.318 279.280,212.291 277.950,212.917 278.337 C 213.252 278.544,213.303 278.476,213.082 278.119 C 212.848 277.740,212.942 277.671,213.433 277.859 C 213.801 278.000,214.016 277.976,213.910 277.804 C 213.632 277.354,219.489 274.541,220.043 274.859 C 220.299 275.005,220.375 274.979,220.214 274.801 C 219.812 274.358,222.935 272.541,223.499 272.889 C 223.762 273.052,223.843 272.997,223.694 272.755 C 223.376 272.241,226.076 270.598,226.653 270.954 C 226.903 271.109,226.961 271.031,226.795 270.763 C 226.542 270.354,227.029 270.131,227.861 270.276 C 228.038 270.307,228.081 270.167,227.956 269.965 C 227.832 269.763,228.318 269.234,229.038 268.789 C 229.757 268.345,231.010 267.453,231.821 266.809 C 232.632 266.164,233.478 265.749,233.701 265.886 C 233.923 266.024,233.995 265.959,233.861 265.742 C 233.558 265.251,235.208 263.658,236.188 263.494 C 236.587 263.427,236.880 263.206,236.838 263.001 C 236.746 262.553,241.701 257.576,242.101 257.715 C 242.256 257.769,242.383 257.637,242.383 257.422 C 242.383 256.687,244.577 254.279,245.006 254.544 C 245.241 254.689,245.325 254.634,245.194 254.421 C 244.855 253.873,246.059 252.276,246.571 252.593 C 246.805 252.737,246.888 252.681,246.756 252.468 C 246.407 251.903,247.626 250.330,248.171 250.642 C 248.425 250.787,248.507 250.767,248.354 250.597 C 248.004 250.210,248.757 248.738,249.173 248.995 C 249.342 249.099,249.479 248.967,249.479 248.701 C 249.479 248.006,250.814 246.068,251.149 246.275 C 251.305 246.371,251.432 246.235,251.432 245.973 C 251.432 245.135,254.381 241.022,254.798 241.279 C 255.025 241.420,255.081 241.336,254.926 241.086 C 254.586 240.535,257.176 236.614,257.616 237.013 C 257.793 237.174,257.811 237.085,257.657 236.817 C 257.318 236.228,258.335 234.650,258.789 235.061 C 258.965 235.221,258.983 235.132,258.829 234.864 C 258.490 234.275,259.507 232.697,259.961 233.108 C 260.137 233.268,260.155 233.179,260.001 232.911 C 259.662 232.321,260.679 230.744,261.133 231.155 C 261.309 231.315,261.330 231.231,261.179 230.969 C 260.833 230.365,262.016 228.021,262.512 228.328 C 262.723 228.458,262.771 228.268,262.624 227.886 C 262.436 227.395,262.506 227.301,262.885 227.535 C 263.230 227.748,263.309 227.704,263.122 227.402 C 262.789 226.863,264.436 223.771,264.902 224.060 C 265.080 224.169,265.110 223.958,264.968 223.589 C 264.780 223.098,264.850 223.004,265.228 223.238 C 265.572 223.451,265.652 223.407,265.467 223.108 C 265.144 222.585,267.204 218.714,267.657 218.994 C 267.823 219.097,267.844 218.880,267.703 218.511 C 267.529 218.059,267.593 217.932,267.898 218.120 C 268.203 218.309,268.267 218.181,268.093 217.730 C 267.905 217.239,267.975 217.145,268.353 217.379 C 268.685 217.584,268.777 217.547,268.610 217.277 C 268.253 216.699,269.160 214.809,269.649 215.112 C 269.865 215.246,269.924 215.164,269.780 214.930 C 269.456 214.406,271.107 210.899,271.548 211.172 C 271.723 211.280,271.750 211.067,271.609 210.698 C 271.421 210.208,271.490 210.114,271.869 210.348 C 272.226 210.569,272.294 210.517,272.087 210.183 C 271.700 209.557,273.030 206.584,273.552 206.907 C 273.785 207.051,273.828 206.957,273.657 206.679 C 273.263 206.042,274.972 201.890,275.495 202.213 C 275.733 202.360,275.785 202.275,275.621 202.010 C 275.226 201.371,275.748 199.934,276.260 200.250 C 276.513 200.406,276.570 200.329,276.402 200.057 C 276.008 199.418,276.530 197.980,277.042 198.297 C 277.298 198.455,277.351 198.375,277.177 198.094 C 277.019 197.838,277.596 195.658,278.459 193.248 C 279.321 190.839,280.507 187.249,281.094 185.271 C 281.680 183.293,282.305 181.764,282.482 181.873 C 282.659 181.982,282.711 181.832,282.599 181.539 C 282.486 181.245,283.095 178.292,283.951 174.975 C 291.667 145.076,292.306 116.923,285.864 90.708 C 284.730 86.092,284.594 82.809,285.562 83.408 C 285.764 83.532,285.834 83.388,285.719 83.088 C 285.603 82.787,286.117 80.888,286.861 78.868 C 287.605 76.848,288.329 74.797,288.471 74.311 C 288.616 73.812,288.912 73.540,289.151 73.687 C 289.404 73.844,289.461 73.766,289.294 73.496 C 288.951 72.942,291.369 65.556,291.804 65.825 C 291.975 65.930,292.015 65.637,291.894 65.174 C 291.753 64.634,291.823 64.423,292.090 64.588 C 292.356 64.753,292.426 64.542,292.285 64.002 C 292.144 63.462,292.214 63.251,292.480 63.416 C 292.747 63.581,292.817 63.370,292.675 62.830 C 292.534 62.290,292.604 62.080,292.871 62.244 C 293.137 62.409,293.207 62.198,293.066 61.658 C 292.925 61.118,292.995 60.908,293.261 61.072 C 293.528 61.237,293.598 61.026,293.457 60.486 C 293.293 59.858,293.367 59.724,293.749 59.960 C 294.097 60.175,294.168 60.125,293.969 59.804 C 293.594 59.198,294.052 57.321,294.506 57.602 C 294.695 57.718,294.750 57.434,294.629 56.971 C 294.487 56.431,294.558 56.220,294.824 56.385 C 295.090 56.549,295.160 56.339,295.019 55.799 C 294.878 55.259,294.948 55.048,295.215 55.213 C 295.481 55.378,295.551 55.167,295.410 54.627 C 295.260 54.054,295.333 53.873,295.637 54.061 C 295.925 54.239,296.004 54.126,295.857 53.745 C 295.573 53.004,297.605 46.797,298.043 47.068 C 298.220 47.177,298.265 46.887,298.144 46.424 C 298.003 45.884,298.073 45.673,298.340 45.838 C 298.750 46.092,298.745 45.967,298.260 43.659 C 297.984 42.345,296.337 41.426,294.440 41.527 C 293.674 41.568,293.111 41.706,293.188 41.833 M287.109 60.612 C 287.109 60.816,286.906 60.858,286.658 60.705 C 286.376 60.530,286.314 60.598,286.492 60.887 C 286.843 61.454,284.824 67.661,284.378 67.385 C 284.202 67.276,284.156 67.566,284.278 68.029 C 284.442 68.657,284.367 68.791,283.986 68.555 C 283.643 68.343,283.567 68.391,283.757 68.698 C 284.161 69.352,282.849 73.115,282.329 72.794 C 282.079 72.640,282.025 72.720,282.194 72.994 C 282.545 73.563,281.699 76.254,281.255 75.980 C 281.077 75.870,281.031 76.159,281.153 76.623 C 281.317 77.251,281.242 77.385,280.861 77.149 C 280.520 76.939,280.442 76.985,280.628 77.286 C 281.001 77.889,280.041 80.492,279.556 80.192 C 279.344 80.061,279.301 80.160,279.460 80.416 C 279.860 81.065,278.941 83.661,278.424 83.342 C 278.174 83.187,278.118 83.266,278.285 83.537 C 278.680 84.176,278.158 85.613,277.646 85.297 C 277.386 85.136,277.336 85.219,277.517 85.511 C 277.915 86.155,276.195 90.685,275.675 90.364 C 275.441 90.219,275.387 90.303,275.547 90.563 C 275.932 91.185,274.220 95.750,273.718 95.440 C 273.486 95.296,273.435 95.383,273.598 95.646 C 273.992 96.285,273.470 97.723,272.958 97.406 C 272.705 97.250,272.648 97.327,272.816 97.599 C 273.211 98.238,272.689 99.676,272.177 99.359 C 271.924 99.203,271.867 99.280,272.035 99.553 C 272.430 100.191,271.908 101.629,271.396 101.313 C 271.143 101.156,271.086 101.234,271.254 101.506 C 271.649 102.144,271.127 103.582,270.615 103.266 C 270.358 103.107,270.305 103.187,270.479 103.469 C 270.856 104.079,269.126 108.240,268.625 107.930 C 268.408 107.796,268.362 107.891,268.520 108.146 C 268.914 108.785,268.392 110.223,267.880 109.906 C 267.627 109.750,267.570 109.827,267.738 110.099 C 268.133 110.738,267.611 112.176,267.099 111.859 C 266.846 111.703,266.789 111.780,266.957 112.053 C 267.352 112.691,266.830 114.129,266.318 113.813 C 266.065 113.656,266.008 113.734,266.176 114.006 C 266.571 114.644,266.048 116.082,265.537 115.766 C 265.277 115.605,265.227 115.688,265.407 115.979 C 265.796 116.608,264.867 118.810,264.347 118.489 C 264.105 118.340,264.060 118.430,264.235 118.713 C 264.624 119.343,263.695 121.545,263.176 121.224 C 262.933 121.074,262.888 121.164,263.063 121.448 C 263.452 122.077,262.523 124.279,262.004 123.958 C 261.761 123.808,261.716 123.898,261.891 124.182 C 262.273 124.799,259.757 130.900,259.250 130.587 C 259.038 130.456,258.982 130.539,259.126 130.773 C 259.468 131.326,258.227 134.436,257.776 134.157 C 257.586 134.040,257.547 134.245,257.688 134.614 C 257.876 135.105,257.807 135.199,257.428 134.965 C 257.095 134.759,257.004 134.796,257.173 135.070 C 257.547 135.675,256.257 138.722,255.758 138.414 C 255.532 138.274,255.461 138.343,255.599 138.567 C 255.938 139.115,255.093 141.461,254.654 141.190 C 254.462 141.072,254.422 141.277,254.563 141.645 C 254.751 142.136,254.682 142.230,254.303 141.996 C 253.959 141.783,253.879 141.827,254.064 142.126 C 254.408 142.684,252.371 147.329,251.908 147.042 C 251.723 146.928,251.687 147.136,251.829 147.505 C 252.017 147.996,251.947 148.089,251.569 147.855 C 251.229 147.646,251.145 147.687,251.323 147.975 C 251.698 148.582,250.009 152.395,249.503 152.083 C 249.280 151.945,249.211 152.016,249.350 152.240 C 249.680 152.774,248.051 156.689,247.612 156.418 C 247.426 156.303,247.390 156.511,247.532 156.880 C 247.720 157.371,247.650 157.464,247.272 157.230 C 246.934 157.022,246.848 157.062,247.023 157.345 C 247.358 157.888,243.377 166.463,242.920 166.181 C 242.737 166.068,242.703 166.277,242.844 166.645 C 243.033 167.136,242.963 167.230,242.584 166.996 C 242.252 166.791,242.160 166.828,242.329 167.100 C 242.689 167.683,238.657 176.209,238.164 175.904 C 237.947 175.770,237.886 175.848,238.027 176.076 C 238.365 176.623,237.908 177.791,237.464 177.517 C 237.274 177.399,237.234 177.605,237.376 177.973 C 237.564 178.464,237.494 178.558,237.115 178.324 C 236.784 178.119,236.692 178.156,236.859 178.426 C 237.216 179.004,236.309 180.894,235.820 180.591 C 235.603 180.458,235.545 180.541,235.691 180.776 C 236.011 181.294,232.791 187.924,232.351 187.651 C 232.180 187.546,232.156 187.761,232.297 188.130 C 232.486 188.621,232.416 188.714,232.037 188.480 C 231.695 188.269,231.613 188.312,231.796 188.607 C 232.126 189.142,228.132 196.926,227.673 196.642 C 227.497 196.533,227.468 196.745,227.610 197.114 C 227.798 197.605,227.729 197.699,227.350 197.465 C 227.012 197.256,226.926 197.296,227.102 197.580 C 227.453 198.149,225.088 202.835,224.601 202.534 C 224.386 202.401,224.337 202.588,224.485 202.973 C 224.673 203.464,224.604 203.558,224.225 203.324 C 223.880 203.111,223.801 203.155,223.987 203.457 C 224.348 204.042,222.654 207.076,222.142 206.760 C 221.924 206.625,221.877 206.718,222.034 206.973 C 222.395 207.557,220.700 210.591,220.189 210.275 C 219.971 210.141,219.923 210.233,220.079 210.486 C 220.434 211.060,219.124 213.317,218.618 213.004 C 218.409 212.875,218.363 212.971,218.515 213.216 C 218.882 213.810,215.659 219.208,215.131 218.882 C 214.894 218.735,214.839 218.818,215.001 219.080 C 215.344 219.635,214.311 221.201,213.867 220.798 C 213.691 220.639,213.671 220.724,213.823 220.989 C 214.160 221.575,212.366 224.333,211.914 223.924 C 211.738 223.764,211.718 223.849,211.870 224.114 C 212.207 224.700,210.413 227.458,209.961 227.049 C 209.785 226.889,209.764 226.973,209.915 227.236 C 210.252 227.822,207.679 231.756,207.227 231.346 C 207.051 231.186,207.030 231.270,207.181 231.533 C 207.518 232.119,204.945 236.053,204.493 235.643 C 204.316 235.483,204.296 235.568,204.448 235.833 C 204.741 236.343,203.015 239.213,202.641 238.839 C 202.521 238.718,202.448 238.939,202.480 239.329 C 202.513 239.720,202.340 240.002,202.097 239.957 C 201.853 239.911,201.678 240.175,201.706 240.543 C 201.735 240.910,201.559 241.174,201.315 241.129 C 201.072 241.083,200.896 241.347,200.925 241.715 C 200.953 242.082,200.778 242.346,200.534 242.300 C 200.291 242.255,200.115 242.519,200.144 242.886 C 200.172 243.254,199.996 243.518,199.753 243.472 C 199.510 243.427,199.334 243.691,199.362 244.058 C 199.391 244.426,199.224 244.692,198.991 244.651 C 198.758 244.609,198.568 244.788,198.568 245.049 C 198.568 245.735,196.441 248.847,196.111 248.644 C 195.958 248.549,195.833 248.689,195.833 248.955 C 195.833 249.782,194.467 251.569,194.038 251.303 C 193.803 251.158,193.745 251.239,193.903 251.494 C 194.199 251.973,192.625 254.372,192.190 254.103 C 192.046 254.014,191.927 254.158,191.927 254.424 C 191.927 255.278,190.555 257.034,190.094 256.770 C 189.849 256.630,189.774 256.655,189.928 256.825 C 190.288 257.224,189.518 258.680,189.087 258.414 C 188.907 258.302,188.784 258.496,188.814 258.843 C 188.846 259.223,188.506 259.534,187.964 259.622 C 187.356 259.720,187.153 259.621,187.341 259.316 C 187.515 259.036,187.450 258.969,187.170 259.142 C 186.615 259.485,185.049 258.452,185.452 258.008 C 185.611 257.831,185.538 257.804,185.289 257.946 C 184.704 258.281,183.533 257.837,183.812 257.385 C 183.929 257.196,183.723 257.156,183.355 257.297 C 182.864 257.486,182.770 257.416,183.004 257.037 C 183.205 256.712,183.172 256.614,182.914 256.773 C 182.354 257.119,177.640 255.310,178.018 254.894 C 178.184 254.712,178.096 254.691,177.823 254.849 C 177.248 255.180,174.913 254.754,175.155 254.363 C 175.243 254.219,174.762 254.086,174.084 254.067 C 173.406 254.048,170.621 253.809,167.895 253.536 C 160.611 252.806,150.742 253.928,140.039 256.702 C 137.461 257.370,134.885 257.937,134.315 257.962 C 133.744 257.987,133.340 258.108,133.415 258.230 C 133.646 258.603,128.156 260.222,127.673 259.923 C 127.407 259.758,127.329 259.816,127.482 260.064 C 127.802 260.582,125.205 261.501,124.557 261.100 C 124.294 260.938,124.202 260.985,124.341 261.211 C 124.475 261.427,124.143 261.806,123.602 262.052 C 122.381 262.609,121.606 262.622,121.278 262.092 C 120.945 261.552,121.850 260.486,122.370 260.807 C 122.594 260.945,122.669 260.884,122.538 260.671 C 122.199 260.123,123.403 258.526,123.915 258.843 C 124.149 258.987,124.230 258.928,124.096 258.712 C 123.793 258.220,124.769 256.836,125.420 256.836 C 125.685 256.836,125.945 256.544,125.997 256.188 C 126.142 255.200,130.142 250.384,130.588 250.660 C 130.804 250.793,130.876 250.733,130.748 250.526 C 130.455 250.052,136.592 242.345,137.147 242.490 C 137.373 242.549,137.464 242.446,137.350 242.261 C 137.053 241.781,138.260 240.175,138.708 240.452 C 138.914 240.579,139.040 240.538,138.989 240.361 C 138.812 239.746,139.885 238.261,140.314 238.526 C 140.552 238.673,140.638 238.618,140.506 238.405 C 140.168 237.857,141.371 236.260,141.884 236.577 C 142.120 236.723,142.197 236.660,142.058 236.434 C 141.717 235.883,143.317 233.912,143.842 234.236 C 144.074 234.380,144.149 234.314,144.010 234.090 C 143.670 233.539,146.837 229.618,147.361 229.941 C 147.590 230.083,147.664 230.017,147.527 229.794 C 147.186 229.242,148.785 227.271,149.310 227.596 C 149.542 227.739,149.618 227.674,149.480 227.450 C 149.139 226.899,150.738 224.927,151.264 225.252 C 151.494 225.395,151.575 225.337,151.444 225.124 C 151.095 224.559,152.314 222.986,152.859 223.298 C 153.113 223.444,153.194 223.423,153.039 223.251 C 152.636 222.805,154.273 220.642,154.778 220.954 C 155.013 221.100,155.087 221.033,154.945 220.804 C 154.651 220.329,157.666 216.553,158.222 216.699 C 158.427 216.753,158.556 216.665,158.511 216.504 C 158.354 215.950,159.415 214.432,159.795 214.667 C 160.004 214.796,160.127 214.724,160.068 214.508 C 159.899 213.885,164.504 208.189,164.953 208.466 C 165.174 208.603,165.241 208.530,165.101 208.304 C 164.798 207.813,167.832 204.055,168.408 204.209 C 168.628 204.268,168.710 204.157,168.589 203.962 C 168.260 203.429,169.913 201.514,170.441 201.817 C 170.693 201.961,170.772 201.938,170.617 201.767 C 170.214 201.320,171.851 199.158,172.356 199.470 C 172.587 199.613,172.669 199.556,172.538 199.343 C 172.199 198.795,173.403 197.198,173.915 197.515 C 174.151 197.661,174.228 197.597,174.089 197.372 C 173.748 196.820,175.348 194.849,175.873 195.174 C 176.104 195.316,176.185 195.259,176.053 195.046 C 175.704 194.481,176.923 192.908,177.468 193.220 C 177.722 193.366,177.803 193.344,177.648 193.173 C 177.245 192.727,178.882 190.564,179.387 190.876 C 179.621 191.020,179.696 190.956,179.557 190.730 C 179.217 190.179,182.384 186.258,182.907 186.582 C 183.136 186.724,183.217 186.666,183.086 186.455 C 182.767 185.939,187.781 179.848,188.389 180.013 C 188.652 180.085,188.741 180.017,188.586 179.862 C 188.173 179.449,189.829 177.289,190.325 177.595 C 190.558 177.739,190.634 177.674,190.495 177.450 C 190.155 176.899,191.754 174.927,192.279 175.252 C 192.511 175.395,192.587 175.330,192.448 175.106 C 192.097 174.538,193.712 172.591,194.270 172.910 C 194.521 173.054,194.600 173.032,194.445 172.861 C 194.042 172.414,195.679 170.251,196.184 170.564 C 196.417 170.708,196.493 170.643,196.355 170.419 C 196.014 169.867,197.613 167.896,198.139 168.221 C 198.373 168.365,198.446 168.299,198.304 168.069 C 198.001 167.578,201.035 163.820,201.611 163.975 C 201.831 164.034,201.911 163.920,201.789 163.722 C 201.517 163.282,204.577 159.531,205.097 159.668 C 205.302 159.722,205.425 159.607,205.371 159.414 C 205.205 158.815,208.260 155.067,208.695 155.336 C 208.920 155.475,208.997 155.415,208.866 155.202 C 208.527 154.654,209.731 153.057,210.243 153.374 C 210.477 153.518,210.560 153.462,210.428 153.249 C 210.090 152.701,211.293 151.104,211.806 151.421 C 212.046 151.569,212.119 151.503,211.974 151.268 C 211.680 150.793,216.337 145.062,216.885 145.225 C 217.083 145.284,217.147 145.173,217.027 144.979 C 216.758 144.543,221.384 138.829,221.897 138.965 C 222.100 139.019,222.228 138.931,222.183 138.770 C 222.014 138.175,223.100 136.706,223.517 136.963 C 223.763 137.115,223.839 137.053,223.695 136.819 C 223.392 136.328,226.426 132.570,227.001 132.725 C 227.222 132.784,227.308 132.680,227.194 132.495 C 226.878 131.984,228.118 130.418,228.603 130.718 C 228.842 130.866,228.916 130.800,228.772 130.568 C 228.478 130.092,234.620 122.412,235.177 122.559 C 235.380 122.612,235.510 122.524,235.464 122.363 C 235.295 121.769,236.381 120.299,236.799 120.557 C 237.036 120.704,237.122 120.650,236.991 120.437 C 236.642 119.872,237.861 118.298,238.406 118.611 C 238.659 118.756,238.741 118.735,238.586 118.564 C 238.167 118.100,239.823 115.960,240.362 116.269 C 240.614 116.413,240.694 116.391,240.539 116.220 C 240.136 115.774,241.773 113.611,242.278 113.923 C 242.509 114.066,242.591 114.009,242.459 113.796 C 242.121 113.248,243.324 111.651,243.837 111.968 C 244.073 112.114,244.150 112.050,244.011 111.825 C 243.670 111.274,245.270 109.302,245.795 109.627 C 246.026 109.770,246.107 109.712,245.975 109.499 C 245.626 108.934,246.845 107.361,247.390 107.673 C 247.644 107.819,247.725 107.798,247.570 107.626 C 247.192 107.208,248.788 105.007,249.258 105.298 C 249.462 105.424,249.587 105.382,249.536 105.205 C 249.371 104.630,250.418 103.096,250.811 103.338 C 251.020 103.468,251.150 103.429,251.099 103.252 C 250.933 102.677,251.981 101.143,252.373 101.385 C 252.582 101.515,252.705 101.449,252.646 101.240 C 252.472 100.622,255.512 96.855,255.960 97.133 C 256.186 97.272,256.263 97.212,256.131 96.999 C 255.793 96.451,256.996 94.854,257.509 95.171 C 257.742 95.315,257.825 95.259,257.694 95.046 C 257.375 94.530,258.544 92.892,259.021 93.187 C 259.226 93.314,259.346 93.246,259.287 93.037 C 259.113 92.419,262.152 88.652,262.601 88.930 C 262.827 89.069,262.904 89.009,262.772 88.796 C 262.433 88.248,263.637 86.651,264.150 86.968 C 264.388 87.115,264.463 87.050,264.320 86.819 C 263.994 86.291,267.074 82.575,267.695 82.747 C 267.953 82.819,268.037 82.751,267.883 82.596 C 267.469 82.183,269.126 80.023,269.621 80.329 C 269.855 80.473,269.931 80.409,269.792 80.184 C 269.451 79.633,271.051 77.662,271.576 77.986 C 271.807 78.129,271.888 78.071,271.756 77.858 C 271.438 77.343,272.607 75.704,273.083 75.999 C 273.289 76.126,273.409 76.053,273.350 75.836 C 273.175 75.195,276.576 71.056,277.041 71.343 C 277.301 71.504,277.351 71.422,277.171 71.129 C 276.811 70.548,278.069 69.060,278.628 69.406 C 278.848 69.541,278.912 69.466,278.772 69.240 C 278.470 68.751,283.462 62.647,284.037 62.803 C 284.255 62.862,284.339 62.758,284.225 62.573 C 283.928 62.093,285.135 60.487,285.583 60.765 C 285.789 60.892,285.932 60.851,285.901 60.674 C 285.782 59.987,285.960 59.799,286.523 60.015 C 286.846 60.139,287.109 60.407,287.109 60.612 M282.028 99.977 C 282.292 101.673,282.373 103.278,282.209 103.544 C 282.031 103.832,282.071 103.928,282.310 103.780 C 283.267 103.189,284.393 116.219,284.393 127.885 C 284.393 137.843,284.162 141.606,282.987 150.781 C 281.940 158.950,280.106 168.813,279.682 168.551 C 279.510 168.445,279.453 168.676,279.554 169.065 C 279.886 170.333,275.174 187.654,274.595 187.296 C 274.428 187.193,274.391 187.488,274.512 187.951 C 274.653 188.491,274.583 188.702,274.317 188.537 C 274.050 188.372,273.980 188.583,274.121 189.123 C 274.263 189.663,274.192 189.874,273.926 189.709 C 273.660 189.544,273.590 189.755,273.731 190.295 C 273.872 190.835,273.802 191.045,273.535 190.881 C 273.269 190.716,273.199 190.927,273.340 191.467 C 273.504 192.095,273.430 192.229,273.048 191.993 C 272.702 191.779,272.629 191.828,272.824 192.144 C 273.205 192.759,271.847 196.513,271.354 196.209 C 271.142 196.077,271.098 196.174,271.254 196.428 C 271.649 197.066,271.127 198.504,270.615 198.188 C 270.362 198.031,270.305 198.109,270.473 198.381 C 270.867 199.019,270.345 200.457,269.833 200.141 C 269.574 199.980,269.524 200.063,269.704 200.354 C 270.093 200.983,269.164 203.185,268.644 202.864 C 268.402 202.715,268.357 202.805,268.532 203.088 C 268.921 203.718,267.992 205.920,267.472 205.599 C 267.241 205.456,267.183 205.537,267.338 205.787 C 267.682 206.343,266.042 210.219,265.584 209.935 C 265.396 209.820,265.359 210.027,265.501 210.395 C 265.689 210.886,265.619 210.980,265.240 210.746 C 264.906 210.539,264.817 210.578,264.987 210.854 C 265.308 211.372,262.088 218.002,261.648 217.730 C 261.477 217.624,261.453 217.839,261.594 218.208 C 261.783 218.699,261.713 218.793,261.334 218.558 C 260.989 218.345,260.910 218.390,261.096 218.691 C 261.462 219.282,259.383 223.098,258.868 222.780 C 258.640 222.639,258.594 222.731,258.759 222.998 C 259.121 223.584,256.246 228.559,255.730 228.240 C 255.520 228.110,255.470 228.202,255.620 228.444 C 255.921 228.931,253.024 233.753,252.653 233.383 C 252.526 233.255,252.448 233.470,252.480 233.861 C 252.514 234.263,252.315 234.524,252.022 234.463 C 251.737 234.404,251.612 234.529,251.743 234.741 C 252.031 235.207,249.243 239.514,248.822 239.254 C 248.659 239.153,248.550 239.377,248.579 239.750 C 248.609 240.124,248.442 240.396,248.210 240.354 C 247.977 240.312,247.786 240.493,247.786 240.756 C 247.786 241.607,246.413 243.361,245.953 243.098 C 245.708 242.958,245.633 242.983,245.787 243.153 C 246.216 243.627,245.341 244.983,244.805 244.675 C 244.547 244.527,244.462 244.545,244.615 244.715 C 245.028 245.173,244.174 246.551,243.670 246.240 C 243.433 246.093,243.346 246.147,243.478 246.360 C 243.817 246.908,242.613 248.505,242.100 248.188 C 241.862 248.041,241.787 248.106,241.929 248.336 C 242.266 248.880,238.698 253.187,238.177 252.865 C 237.936 252.716,237.887 252.804,238.058 253.080 C 238.451 253.715,229.106 263.060,228.471 262.667 C 228.198 262.499,228.107 262.545,228.250 262.777 C 228.587 263.322,224.728 266.526,224.159 266.174 C 223.905 266.017,223.813 266.065,223.948 266.284 C 224.252 266.777,221.993 268.478,221.466 268.153 C 221.251 268.020,221.123 268.143,221.182 268.428 C 221.241 268.714,220.985 268.921,220.610 268.892 C 220.236 268.862,220.027 268.994,220.144 269.185 C 220.343 269.506,219.771 269.699,219.014 269.568 C 218.837 269.537,218.783 269.660,218.895 269.841 C 219.186 270.311,216.884 271.584,216.345 271.251 C 216.046 271.066,216.002 271.146,216.215 271.490 C 216.449 271.869,216.355 271.939,215.864 271.751 C 215.412 271.577,215.285 271.641,215.473 271.946 C 215.660 272.247,215.538 272.316,215.108 272.151 C 214.710 271.998,214.498 272.085,214.555 272.377 C 214.607 272.640,214.265 272.839,213.789 272.823 C 213.316 272.807,213.019 272.939,213.128 273.116 C 213.238 273.293,213.273 273.438,213.207 273.439 C 213.140 273.440,211.774 273.975,210.170 274.628 C 205.063 276.709,193.045 279.612,191.360 279.172 C 190.955 279.066,190.709 279.116,190.812 279.284 C 190.916 279.452,188.939 279.975,186.418 280.446 C 183.898 280.917,181.441 281.382,180.958 281.479 C 180.284 281.614,180.106 281.492,180.188 280.951 C 180.356 279.849,182.044 277.696,182.512 277.985 C 182.747 278.130,182.821 278.065,182.681 277.837 C 182.379 277.349,185.835 272.805,186.390 272.959 C 186.603 273.018,186.678 272.907,186.558 272.712 C 186.261 272.231,188.647 269.303,189.204 269.466 C 189.448 269.538,189.523 269.471,189.369 269.317 C 188.947 268.895,189.819 267.517,190.314 267.823 C 190.564 267.977,190.636 267.912,190.484 267.667 C 190.184 267.180,194.086 261.859,194.624 262.021 C 194.820 262.080,194.871 261.952,194.738 261.737 C 194.463 261.293,196.076 258.927,196.481 259.178 C 196.626 259.267,196.745 259.123,196.745 258.857 C 196.745 258.030,198.111 256.244,198.541 256.509 C 198.769 256.650,198.833 256.575,198.687 256.337 C 198.383 255.846,201.449 251.318,201.986 251.465 C 202.183 251.519,202.323 251.431,202.297 251.270 C 202.182 250.541,202.372 249.972,202.669 250.155 C 202.848 250.266,202.995 250.125,202.995 249.841 C 202.995 249.068,204.707 246.451,205.067 246.673 C 205.240 246.779,205.356 246.561,205.327 246.187 C 205.298 245.814,205.472 245.545,205.716 245.590 C 205.959 245.635,206.135 245.372,206.106 245.004 C 206.078 244.637,206.274 244.380,206.543 244.434 C 206.812 244.487,207.010 244.399,206.985 244.238 C 206.867 243.493,207.063 242.943,207.378 243.137 C 207.568 243.255,207.700 243.045,207.671 242.672 C 207.641 242.298,207.837 242.036,208.105 242.090 C 208.374 242.144,208.573 242.056,208.547 241.895 C 208.418 241.076,208.642 240.609,209.045 240.858 C 209.312 241.023,209.390 240.966,209.237 240.717 C 208.933 240.227,211.292 236.260,211.727 236.529 C 211.889 236.629,211.997 236.405,211.968 236.031 C 211.938 235.655,212.145 235.400,212.431 235.459 C 212.716 235.518,212.846 235.400,212.720 235.196 C 212.385 234.654,214.065 231.987,214.552 232.287 C 214.782 232.430,214.850 232.358,214.706 232.124 C 214.381 231.598,217.152 226.885,217.617 227.172 C 217.806 227.289,217.873 227.155,217.768 226.876 C 217.520 226.218,220.467 221.778,220.894 222.166 C 221.073 222.328,221.093 222.242,220.938 221.973 C 220.599 221.384,221.616 219.806,222.070 220.217 C 222.247 220.377,222.265 220.288,222.110 220.020 C 221.785 219.456,222.784 217.836,223.200 218.252 C 223.353 218.406,223.383 218.273,223.265 217.957 C 223.000 217.243,226.307 211.604,226.753 212.010 C 226.932 212.172,226.958 212.096,226.812 211.840 C 226.479 211.260,227.880 208.880,228.319 209.279 C 228.496 209.439,228.515 209.351,228.360 209.082 C 228.040 208.526,230.084 204.645,230.547 204.931 C 230.714 205.034,230.735 204.817,230.593 204.448 C 230.420 203.997,230.484 203.869,230.789 204.058 C 231.064 204.228,231.169 204.138,231.057 203.829 C 230.822 203.181,233.747 197.940,234.130 198.323 C 234.287 198.480,234.289 198.278,234.134 197.873 C 233.939 197.365,233.991 197.224,234.304 197.417 C 234.609 197.606,234.673 197.478,234.499 197.027 C 234.326 196.575,234.390 196.447,234.695 196.636 C 234.970 196.806,235.075 196.717,234.962 196.407 C 234.711 195.718,238.827 188.184,239.246 188.565 C 239.429 188.731,239.462 188.663,239.319 188.414 C 238.984 187.829,239.429 186.658,239.880 186.937 C 240.070 187.054,240.110 186.848,239.968 186.480 C 239.780 185.989,239.850 185.895,240.228 186.129 C 240.557 186.332,240.652 186.297,240.489 186.033 C 240.151 185.487,240.608 184.318,241.052 184.593 C 241.242 184.710,241.282 184.505,241.140 184.136 C 240.952 183.645,241.021 183.551,241.400 183.785 C 241.729 183.988,241.824 183.953,241.661 183.689 C 241.323 183.143,241.780 181.975,242.224 182.249 C 242.414 182.366,242.453 182.161,242.312 181.792 C 242.139 181.340,242.202 181.213,242.507 181.402 C 242.812 181.590,242.876 181.463,242.703 181.011 C 242.514 180.520,242.584 180.426,242.963 180.660 C 243.306 180.873,243.387 180.829,243.203 180.531 C 242.862 179.980,246.461 172.205,246.925 172.492 C 247.107 172.604,247.141 172.395,246.999 172.027 C 246.826 171.575,246.890 171.447,247.195 171.636 C 247.500 171.824,247.563 171.697,247.390 171.245 C 247.202 170.754,247.271 170.661,247.650 170.895 C 247.994 171.107,248.074 171.064,247.890 170.765 C 247.545 170.207,249.582 165.562,250.045 165.848 C 250.230 165.963,250.266 165.755,250.124 165.386 C 249.936 164.895,250.006 164.801,250.385 165.035 C 250.728 165.248,250.809 165.204,250.624 164.905 C 250.279 164.347,252.316 159.702,252.780 159.989 C 252.965 160.103,253.000 159.895,252.859 159.527 C 252.671 159.036,252.740 158.942,253.119 159.176 C 253.463 159.388,253.543 159.345,253.358 159.046 C 252.982 158.437,255.069 153.855,255.579 154.170 C 255.800 154.306,255.867 154.234,255.728 154.010 C 255.398 153.476,257.028 149.561,257.466 149.832 C 257.652 149.947,257.688 149.739,257.546 149.370 C 257.358 148.879,257.428 148.786,257.806 149.020 C 258.146 149.229,258.230 149.188,258.052 148.900 C 257.709 148.344,259.348 144.469,259.807 144.752 C 259.994 144.868,260.032 144.661,259.890 144.292 C 259.702 143.801,259.771 143.707,260.150 143.942 C 260.483 144.147,260.574 144.110,260.405 143.836 C 260.031 143.232,261.322 140.184,261.821 140.493 C 262.046 140.632,262.117 140.562,261.978 140.338 C 261.617 139.754,263.296 135.901,263.781 136.200 C 264.009 136.341,264.066 136.258,263.912 136.009 C 263.537 135.402,265.226 131.589,265.731 131.902 C 265.962 132.044,266.020 131.963,265.865 131.713 C 265.490 131.106,267.179 127.292,267.684 127.605 C 267.920 127.750,267.972 127.665,267.809 127.401 C 267.414 126.762,267.936 125.324,268.448 125.641 C 268.683 125.786,268.759 125.722,268.620 125.496 C 268.299 124.977,269.114 122.594,269.525 122.848 C 269.695 122.953,269.826 122.821,269.816 122.554 C 269.768 121.218,269.954 120.677,270.373 120.936 C 270.638 121.100,270.718 121.044,270.568 120.800 C 270.201 120.206,271.892 115.980,272.377 116.280 C 272.597 116.416,272.664 116.344,272.526 116.121 C 272.156 115.522,273.049 113.237,273.536 113.537 C 273.765 113.679,273.835 113.608,273.693 113.378 C 273.326 112.784,275.017 108.558,275.502 108.858 C 275.727 108.997,275.784 108.914,275.631 108.667 C 275.374 108.250,279.384 97.611,280.189 96.577 C 280.906 95.655,281.537 96.822,282.028 99.977 M290.716 123.438 C 290.716 124.189,290.796 124.497,290.894 124.121 C 290.993 123.745,290.993 123.130,290.894 122.754 C 290.796 122.378,290.716 122.686,290.716 123.438 M290.742 130.078 C 290.742 131.260,290.815 131.743,290.905 131.152 C 290.994 130.562,290.994 129.595,290.905 129.004 C 290.815 128.413,290.742 128.896,290.742 130.078 M169.068 288.184 C 168.919 288.785,170.299 291.426,170.879 291.648 C 171.209 291.775,171.384 292.034,171.267 292.224 C 171.149 292.414,171.282 292.487,171.562 292.386 C 171.841 292.286,177.168 291.764,183.398 291.227 C 195.306 290.201,203.019 289.415,209.647 288.552 C 211.838 288.266,213.550 288.162,213.453 288.319 C 213.356 288.476,213.494 288.678,213.761 288.767 C 214.325 288.955,212.202 291.667,211.627 291.494 C 211.431 291.435,211.369 291.547,211.490 291.742 C 211.788 292.225,208.618 296.155,208.159 295.871 C 207.958 295.747,207.841 295.813,207.900 296.018 C 208.081 296.644,206.241 298.869,205.779 298.583 C 205.518 298.422,205.459 298.496,205.628 298.770 C 206.020 299.403,196.187 309.104,195.443 308.818 C 195.134 308.700,194.976 308.757,195.093 308.945 C 195.388 309.422,194.266 310.280,193.757 309.966 C 193.528 309.824,193.388 309.919,193.447 310.177 C 193.589 310.796,188.283 313.728,187.402 313.518 C 187.026 313.428,186.811 313.505,186.924 313.689 C 187.248 314.213,184.495 314.648,180.859 314.648 C 176.941 314.648,174.470 314.214,174.854 313.592 C 175.011 313.338,174.942 313.271,174.688 313.428 C 174.059 313.817,172.224 313.274,172.524 312.789 C 172.669 312.555,172.590 312.495,172.340 312.649 C 171.841 312.958,165.204 310.912,165.444 310.524 C 165.531 310.384,165.141 310.357,164.579 310.465 C 164.016 310.572,163.653 310.503,163.772 310.311 C 163.891 310.118,163.433 309.930,162.756 309.892 C 151.590 309.265,151.427 309.268,146.875 310.120 C 144.404 310.582,141.191 311.314,139.733 311.745 C 138.276 312.177,136.887 312.408,136.646 312.259 C 136.393 312.103,136.316 312.164,136.463 312.402 C 136.763 312.888,134.478 313.782,133.879 313.412 C 133.644 313.266,133.590 313.350,133.752 313.612 C 133.947 313.928,133.480 314.063,132.184 314.063 C 129.912 314.063,125.337 313.294,125.549 312.948 C 125.635 312.809,125.198 312.677,124.580 312.654 C 122.925 312.594,119.870 311.338,120.175 310.844 C 120.320 310.610,120.251 310.539,120.017 310.683 C 119.471 311.021,118.303 310.564,118.577 310.120 C 118.695 309.930,118.489 309.890,118.120 310.032 C 117.629 310.220,117.536 310.150,117.770 309.772 C 117.986 309.422,117.939 309.347,117.624 309.542 C 117.021 309.915,113.202 307.475,113.538 306.931 C 113.678 306.705,113.616 306.629,113.399 306.763 C 112.932 307.052,111.523 306.104,111.523 305.500 C 111.523 305.268,111.401 305.122,111.252 305.176 C 110.779 305.346,108.223 302.628,108.474 302.221 C 108.606 302.008,108.524 301.950,108.290 302.095 C 107.778 302.411,106.574 300.814,106.913 300.267 C 107.044 300.054,106.964 299.995,106.734 300.137 C 106.194 300.471,104.543 297.815,104.916 297.212 C 105.078 296.950,105.031 296.858,104.805 296.998 C 104.488 297.194,103.516 295.772,103.516 295.113 C 103.516 294.512,106.114 294.075,114.867 293.205 C 135.059 291.196,138.929 290.854,141.661 290.837 C 143.197 290.828,144.393 290.721,144.319 290.600 C 144.099 290.240,155.349 289.363,156.327 289.664 C 156.838 289.821,157.084 289.793,156.898 289.599 C 156.711 289.406,159.250 288.983,162.757 288.624 C 166.161 288.275,168.989 287.967,169.043 287.940 C 169.097 287.913,169.108 288.022,169.068 288.184 M237.305 308.193 C 235.156 308.572,232.633 309.093,231.697 309.350 C 230.762 309.607,229.742 309.720,229.431 309.601 C 229.073 309.464,228.967 309.548,229.142 309.832 C 229.331 310.136,229.149 310.209,228.576 310.059 C 228.036 309.918,227.826 309.988,227.990 310.254 C 228.155 310.521,227.944 310.591,227.404 310.450 C 226.941 310.328,226.652 310.376,226.763 310.555 C 227.035 310.996,225.513 311.450,224.943 311.098 C 224.678 310.934,224.593 310.986,224.739 311.222 C 225.060 311.742,222.858 312.671,222.229 312.282 C 221.905 312.082,221.856 312.153,222.074 312.506 C 222.308 312.885,222.214 312.954,221.723 312.766 C 221.355 312.625,221.149 312.664,221.266 312.854 C 221.545 313.305,218.436 314.546,217.883 314.205 C 217.649 314.060,217.568 314.120,217.702 314.338 C 218.025 314.861,215.053 316.191,214.427 315.804 C 214.092 315.597,214.041 315.664,214.262 316.022 C 214.496 316.400,214.402 316.470,213.911 316.282 C 213.542 316.140,213.332 316.173,213.444 316.354 C 213.722 316.804,206.704 320.007,206.167 319.675 C 205.890 319.504,205.852 319.593,206.058 319.928 C 206.293 320.307,206.199 320.376,205.708 320.188 C 205.339 320.047,205.134 320.086,205.251 320.276 C 205.525 320.720,204.357 321.177,203.811 320.839 C 203.547 320.676,203.512 320.771,203.715 321.100 C 203.949 321.479,203.855 321.548,203.364 321.360 C 202.912 321.187,202.785 321.250,202.973 321.555 C 203.162 321.860,203.035 321.924,202.583 321.751 C 202.131 321.577,202.004 321.641,202.192 321.946 C 202.381 322.251,202.253 322.315,201.802 322.141 C 201.350 321.968,201.222 322.032,201.411 322.336 C 201.599 322.641,201.472 322.705,201.020 322.532 C 200.569 322.358,200.441 322.422,200.630 322.727 C 200.818 323.032,200.691 323.096,200.239 322.922 C 199.787 322.749,199.660 322.813,199.848 323.118 C 200.037 323.423,199.910 323.486,199.458 323.313 C 199.006 323.140,198.879 323.203,199.067 323.508 C 199.256 323.813,199.128 323.877,198.677 323.704 C 198.225 323.530,198.097 323.594,198.286 323.899 C 198.474 324.204,198.347 324.268,197.895 324.094 C 197.527 323.953,197.321 323.992,197.438 324.182 C 197.717 324.633,194.608 325.875,194.055 325.533 C 193.810 325.382,193.741 325.450,193.891 325.693 C 194.207 326.205,192.769 326.727,192.131 326.332 C 191.828 326.145,191.782 326.223,191.993 326.564 C 192.229 326.945,192.095 327.020,191.467 326.856 C 190.927 326.715,190.716 326.785,190.881 327.051 C 191.045 327.317,190.835 327.388,190.295 327.246 C 189.831 327.125,189.539 327.166,189.645 327.338 C 190.254 328.323,177.133 330.666,173.438 330.232 C 170.456 329.882,162.516 329.785,162.710 330.100 C 162.937 330.470,158.294 331.352,157.783 331.036 C 157.454 330.833,157.401 330.900,157.615 331.246 C 157.851 331.628,157.675 331.706,156.906 331.558 C 156.343 331.451,155.958 331.484,156.049 331.631 C 156.297 332.032,152.018 333.289,151.499 332.968 C 151.233 332.804,151.157 332.864,151.313 333.115 C 151.629 333.627,150.191 334.149,149.553 333.754 C 149.294 333.594,149.203 333.642,149.341 333.866 C 149.634 334.341,144.990 336.417,144.421 336.065 C 144.200 335.928,144.128 335.991,144.259 336.204 C 144.587 336.734,140.066 338.856,139.437 338.467 C 139.132 338.278,139.039 338.318,139.195 338.570 C 140.095 340.026,127.842 342.969,120.883 342.969 C 116.224 342.969,115.591 343.182,115.032 344.943 C 114.671 346.080,115.825 347.638,117.237 347.920 C 117.889 348.050,118.249 348.264,118.037 348.395 C 117.337 348.827,124.344 348.430,128.221 347.819 C 130.315 347.488,132.232 347.344,132.481 347.497 C 132.780 347.682,132.827 347.605,132.619 347.269 C 132.383 346.887,132.559 346.810,133.329 346.957 C 133.962 347.078,134.258 347.002,134.107 346.757 C 133.957 346.514,134.188 346.447,134.705 346.582 C 135.169 346.703,135.449 346.643,135.329 346.448 C 135.129 346.124,135.784 345.944,137.008 345.988 C 137.274 345.998,137.411 345.874,137.311 345.714 C 137.064 345.314,140.245 344.101,140.739 344.407 C 140.984 344.558,141.014 344.454,140.817 344.135 C 140.582 343.756,140.676 343.686,141.167 343.874 C 141.536 344.016,141.745 343.983,141.633 343.800 C 141.369 343.373,144.512 342.129,145.036 342.453 C 145.281 342.605,145.311 342.501,145.113 342.181 C 144.879 341.803,144.973 341.733,145.464 341.921 C 145.833 342.063,146.038 342.022,145.919 341.830 C 145.648 341.392,147.994 340.546,148.543 340.885 C 148.766 341.023,148.835 340.952,148.696 340.727 C 148.387 340.228,151.435 338.937,152.039 339.311 C 152.273 339.456,152.359 339.403,152.230 339.194 C 151.930 338.709,154.532 337.749,155.136 338.122 C 155.437 338.308,155.483 338.230,155.273 337.889 C 155.037 337.508,155.171 337.433,155.799 337.597 C 156.339 337.739,156.549 337.668,156.385 337.402 C 156.220 337.136,156.431 337.065,156.971 337.207 C 157.505 337.347,157.721 337.277,157.560 337.016 C 157.397 336.753,157.672 336.676,158.329 336.801 C 158.954 336.921,159.258 336.845,159.110 336.606 C 158.962 336.367,159.265 336.291,159.891 336.410 C 160.517 336.530,160.820 336.454,160.672 336.215 C 160.525 335.976,160.828 335.900,161.454 336.020 C 162.016 336.127,162.394 336.083,162.294 335.921 C 162.023 335.481,166.675 334.765,169.759 334.772 C 171.759 334.776,172.309 334.884,171.875 335.188 C 171.398 335.522,171.434 335.561,172.070 335.401 C 172.500 335.292,175.075 335.149,177.792 335.082 C 180.509 335.016,182.638 334.807,182.524 334.619 C 182.409 334.431,182.942 334.350,183.708 334.440 C 184.503 334.533,185.006 334.447,184.878 334.241 C 184.751 334.036,185.178 333.956,185.861 334.057 C 186.578 334.162,186.974 334.081,186.835 333.857 C 186.698 333.635,187.023 333.561,187.625 333.676 C 188.188 333.784,188.569 333.743,188.471 333.585 C 188.233 333.199,190.588 332.749,191.153 333.072 C 191.400 333.213,191.466 333.179,191.300 332.996 C 190.934 332.595,199.191 329.625,199.737 329.962 C 199.951 330.094,199.997 329.999,199.842 329.748 C 199.583 329.329,200.124 329.143,201.461 329.191 C 201.727 329.201,201.830 329.023,201.690 328.796 C 201.525 328.529,201.694 328.483,202.170 328.665 C 202.575 328.820,202.770 328.812,202.604 328.646 C 202.207 328.249,214.018 322.583,214.553 322.913 C 214.813 323.074,214.846 322.977,214.645 322.650 C 214.411 322.271,214.504 322.202,214.995 322.390 C 215.447 322.563,215.574 322.500,215.386 322.195 C 215.197 321.890,215.325 321.826,215.777 321.999 C 216.228 322.173,216.356 322.109,216.167 321.804 C 215.979 321.499,216.106 321.435,216.558 321.609 C 216.926 321.750,217.140 321.723,217.032 321.548 C 216.759 321.107,220.265 319.456,220.789 319.780 C 221.063 319.949,221.101 319.858,220.895 319.525 C 220.661 319.146,220.754 319.077,221.245 319.265 C 221.697 319.438,221.824 319.375,221.636 319.070 C 221.447 318.765,221.575 318.701,222.027 318.874 C 222.478 319.048,222.606 318.984,222.417 318.679 C 222.229 318.374,222.356 318.310,222.808 318.484 C 223.176 318.625,223.387 318.593,223.275 318.412 C 223.001 317.969,224.948 317.109,225.480 317.438 C 225.750 317.605,225.787 317.513,225.582 317.181 C 225.348 316.803,225.442 316.733,225.933 316.921 C 226.331 317.074,226.506 317.022,226.364 316.792 C 226.147 316.440,226.770 316.255,228.023 316.301 C 228.289 316.310,228.394 316.134,228.255 315.910 C 228.096 315.653,228.314 315.583,228.846 315.722 C 229.386 315.864,229.596 315.793,229.432 315.527 C 229.267 315.261,229.477 315.190,230.018 315.332 C 230.558 315.473,230.768 315.403,230.604 315.136 C 230.439 314.870,230.649 314.800,231.189 314.941 C 231.653 315.062,231.943 315.016,231.833 314.839 C 231.567 314.409,233.840 313.927,234.426 314.289 C 234.705 314.462,234.783 314.406,234.623 314.148 C 234.305 313.634,237.596 313.053,238.314 313.497 C 238.605 313.676,238.692 313.630,238.538 313.380 C 238.173 312.790,242.327 312.377,245.573 312.680 C 249.897 313.084,251.189 313.329,250.958 313.702 C 250.838 313.895,251.025 313.945,251.372 313.811 C 252.149 313.513,257.099 314.809,256.832 315.240 C 256.726 315.412,257.019 315.453,257.482 315.332 C 258.110 315.168,258.245 315.242,258.009 315.624 C 257.818 315.933,257.845 316.041,258.078 315.897 C 258.651 315.543,261.339 316.464,261.058 316.918 C 260.922 317.139,261.014 317.186,261.270 317.028 C 261.874 316.655,264.477 317.615,264.177 318.100 C 264.045 318.313,264.144 318.355,264.402 318.196 C 264.995 317.829,268.826 319.092,268.537 319.559 C 268.417 319.754,268.620 319.797,268.989 319.656 C 269.441 319.482,269.568 319.546,269.380 319.851 C 269.191 320.156,269.319 320.220,269.770 320.046 C 270.261 319.858,270.355 319.928,270.121 320.306 C 269.921 320.630,269.953 320.730,270.207 320.573 C 270.806 320.203,273.092 321.096,272.791 321.583 C 272.641 321.826,272.722 321.880,272.989 321.716 C 273.519 321.388,276.213 322.273,275.955 322.691 C 275.859 322.847,276.159 322.875,276.623 322.754 C 277.163 322.612,277.374 322.683,277.209 322.949 C 277.044 323.215,277.255 323.285,277.795 323.144 C 278.423 322.980,278.557 323.055,278.321 323.436 C 278.122 323.758,278.157 323.854,278.415 323.695 C 278.906 323.391,281.303 323.817,281.086 324.169 C 281.002 324.304,281.401 324.430,281.971 324.449 C 282.541 324.469,285.029 324.943,287.500 325.504 C 289.971 326.064,293.984 326.745,296.418 327.015 C 298.851 327.286,300.572 327.602,300.241 327.718 C 299.910 327.835,302.789 327.930,306.641 327.930 C 310.492 327.930,313.342 327.824,312.975 327.696 C 312.608 327.567,313.755 327.335,315.523 327.181 C 317.292 327.027,318.945 327.027,319.196 327.182 C 319.497 327.369,319.546 327.294,319.341 326.961 C 319.105 326.580,319.323 326.501,320.236 326.635 C 320.900 326.732,321.364 326.683,321.267 326.526 C 321.020 326.126,324.088 325.654,324.655 326.005 C 324.967 326.198,325.017 326.125,324.807 325.785 C 324.571 325.403,324.746 325.326,325.516 325.473 C 326.142 325.593,326.445 325.517,326.297 325.278 C 326.150 325.038,326.453 324.963,327.079 325.082 C 327.641 325.190,328.028 325.160,327.939 325.015 C 327.698 324.626,335.904 322.199,336.408 322.510 C 336.688 322.683,336.727 322.596,336.520 322.260 C 336.288 321.885,336.378 321.810,336.845 321.990 C 337.243 322.143,337.455 322.056,337.398 321.763 C 337.347 321.502,337.624 321.315,338.014 321.348 C 338.405 321.380,338.630 321.312,338.515 321.198 C 338.401 321.083,338.653 320.550,339.075 320.012 C 341.560 316.853,338.299 315.599,332.808 317.603 C 331.005 318.261,329.213 318.717,328.826 318.616 C 328.440 318.515,328.213 318.576,328.322 318.752 C 328.519 319.072,322.527 320.613,317.383 321.564 C 313.635 322.258,297.655 322.245,293.750 321.545 C 288.948 320.685,284.372 319.462,284.596 319.099 C 284.712 318.912,284.540 318.861,284.215 318.986 C 283.364 319.312,279.623 317.999,279.940 317.485 C 280.095 317.235,280.014 317.181,279.739 317.351 C 279.115 317.737,275.731 316.412,276.045 315.905 C 276.188 315.674,276.101 315.623,275.838 315.785 C 275.199 316.180,273.762 315.658,274.078 315.146 C 274.235 314.893,274.157 314.836,273.885 315.004 C 273.246 315.399,271.809 314.877,272.125 314.365 C 272.282 314.110,272.204 314.055,271.928 314.225 C 271.359 314.577,268.668 313.730,268.942 313.286 C 269.052 313.109,268.762 313.063,268.299 313.184 C 267.671 313.348,267.537 313.274,267.773 312.892 C 267.985 312.549,267.937 312.473,267.630 312.663 C 266.977 313.067,263.213 311.755,263.534 311.235 C 263.686 310.989,263.609 310.930,263.347 311.092 C 263.101 311.244,261.251 310.840,259.235 310.194 C 250.596 307.426,244.694 306.888,237.305 308.193 M242.485 313.167 C 242.971 313.260,243.674 313.257,244.048 313.159 C 244.421 313.061,244.023 312.985,243.164 312.989 C 242.305 312.993,241.999 313.073,242.485 313.167 M208.203 336.968 C 207.451 337.067,204.325 337.761,201.256 338.511 C 198.187 339.260,195.479 339.751,195.239 339.603 C 194.954 339.427,194.912 339.511,195.118 339.845 C 195.354 340.227,195.220 340.301,194.592 340.137 C 194.128 340.016,193.831 340.050,193.932 340.213 C 194.188 340.628,191.097 341.503,190.557 341.169 C 190.305 341.013,190.221 341.068,190.362 341.296 C 190.672 341.798,186.107 343.510,185.484 343.125 C 185.218 342.961,185.142 343.020,185.297 343.271 C 185.613 343.783,184.176 344.305,183.537 343.910 C 183.265 343.742,183.187 343.799,183.344 344.052 C 183.660 344.564,182.223 345.086,181.584 344.691 C 181.313 344.524,181.234 344.580,181.388 344.829 C 181.705 345.343,177.964 346.656,177.114 346.330 C 176.788 346.205,176.613 346.250,176.725 346.431 C 177.215 347.224,167.440 349.219,163.065 349.219 C 159.072 349.219,156.896 351.621,159.175 353.512 C 159.495 353.778,159.672 354.132,159.569 354.299 C 159.137 354.998,167.155 354.367,171.586 353.353 C 174.113 352.775,176.381 352.427,176.627 352.579 C 176.922 352.761,176.966 352.680,176.757 352.343 C 176.521 351.961,176.655 351.886,177.283 352.050 C 177.747 352.172,178.047 352.143,177.951 351.987 C 177.704 351.588,183.169 349.933,183.683 350.251 C 183.934 350.406,183.992 350.329,183.826 350.060 C 183.568 349.642,184.109 349.456,185.445 349.504 C 185.711 349.513,185.816 349.338,185.677 349.113 C 185.518 348.856,185.736 348.787,186.268 348.925 C 186.731 349.047,187.032 349.018,186.935 348.863 C 186.677 348.445,189.371 347.560,189.902 347.887 C 190.203 348.074,190.249 347.995,190.038 347.655 C 189.802 347.273,189.937 347.199,190.564 347.363 C 191.105 347.504,191.315 347.434,191.150 347.168 C 190.986 346.901,191.196 346.831,191.736 346.972 C 192.200 347.094,192.484 347.039,192.367 346.850 C 192.087 346.396,193.964 345.938,194.569 346.313 C 194.842 346.481,194.941 346.442,194.805 346.220 C 194.501 345.729,199.404 343.978,200.214 344.289 C 200.608 344.440,200.725 344.365,200.545 344.075 C 200.357 343.770,200.538 343.697,201.111 343.847 C 201.575 343.969,201.868 343.928,201.762 343.756 C 201.507 343.345,204.183 342.852,204.754 343.205 C 205.044 343.384,205.090 343.305,204.888 342.977 C 204.652 342.595,204.869 342.516,205.783 342.650 C 206.447 342.748,206.915 342.707,206.824 342.559 C 206.581 342.165,209.808 341.796,213.433 341.803 C 215.314 341.806,216.390 341.943,216.080 342.139 C 215.778 342.331,216.416 342.387,217.602 342.273 C 218.858 342.153,219.556 342.222,219.414 342.452 C 219.277 342.674,219.675 342.755,220.389 342.650 C 221.126 342.542,221.502 342.624,221.356 342.860 C 221.212 343.094,221.521 343.169,222.140 343.051 C 222.910 342.904,223.085 342.981,222.849 343.363 C 222.653 343.680,222.690 343.775,222.946 343.617 C 223.488 343.282,225.823 343.757,225.579 344.152 C 225.475 344.320,225.769 344.359,226.232 344.238 C 226.773 344.097,226.983 344.167,226.818 344.433 C 226.654 344.700,226.864 344.770,227.404 344.629 C 227.944 344.487,228.155 344.558,227.990 344.824 C 227.826 345.090,228.036 345.160,228.576 345.019 C 229.116 344.878,229.327 344.948,229.162 345.215 C 228.997 345.481,229.208 345.551,229.748 345.410 C 230.376 345.246,230.510 345.320,230.274 345.702 C 230.064 346.041,230.110 346.120,230.408 345.936 C 230.940 345.607,236.368 347.276,236.112 347.690 C 236.015 347.846,236.316 347.875,236.779 347.754 C 237.319 347.612,237.530 347.683,237.365 347.949 C 237.201 348.215,237.411 348.285,237.951 348.144 C 238.491 348.003,238.702 348.073,238.537 348.340 C 238.372 348.606,238.583 348.676,239.123 348.535 C 239.663 348.394,239.874 348.464,239.709 348.730 C 239.544 348.997,239.755 349.067,240.295 348.925 C 240.835 348.784,241.045 348.854,240.881 349.121 C 240.716 349.387,240.927 349.457,241.467 349.316 C 242.007 349.175,242.217 349.245,242.053 349.511 C 241.888 349.778,242.099 349.848,242.639 349.707 C 243.267 349.543,243.401 349.617,243.165 349.999 C 242.953 350.342,243.000 350.417,243.309 350.227 C 243.879 349.874,246.171 350.341,245.914 350.757 C 245.811 350.923,246.187 350.971,246.750 350.863 C 247.352 350.748,247.677 350.823,247.540 351.045 C 247.401 351.268,247.797 351.349,248.514 351.244 C 249.427 351.110,249.645 351.189,249.409 351.570 C 249.200 351.910,249.253 351.978,249.572 351.781 C 249.832 351.620,251.536 351.710,253.358 351.981 C 255.180 352.252,256.474 352.596,256.232 352.745 C 255.991 352.895,256.731 352.940,257.877 352.847 C 259.023 352.754,259.758 352.823,259.511 352.999 C 259.263 353.176,261.928 353.320,265.431 353.320 C 268.935 353.320,271.598 353.174,271.350 352.995 C 271.102 352.816,271.865 352.768,273.047 352.888 C 274.229 353.007,274.969 352.963,274.692 352.790 C 274.380 352.594,275.227 352.289,276.922 351.986 C 278.426 351.717,279.866 351.627,280.123 351.785 C 280.397 351.955,280.487 351.908,280.341 351.672 C 280.027 351.163,283.354 350.196,284.014 350.604 C 284.285 350.772,284.396 350.741,284.268 350.534 C 284.143 350.331,284.528 349.950,285.125 349.686 C 286.866 348.915,287.564 346.864,286.554 345.485 C 286.022 344.758,281.040 344.263,281.482 344.981 C 281.723 345.372,277.834 346.202,277.302 345.873 C 277.016 345.696,276.934 345.747,277.093 346.005 C 277.671 346.939,268.554 348.022,262.109 347.784 C 257.883 347.629,249.507 346.184,249.828 345.666 C 249.945 345.476,249.770 345.425,249.439 345.552 C 248.667 345.848,244.860 344.947,245.119 344.529 C 245.226 344.355,244.934 344.313,244.471 344.434 C 243.931 344.575,243.720 344.505,243.885 344.239 C 244.049 343.972,243.839 343.902,243.299 344.043 C 242.671 344.207,242.537 344.133,242.773 343.751 C 242.984 343.409,242.937 343.333,242.631 343.522 C 241.982 343.923,239.385 343.004,239.705 342.486 C 239.860 342.236,239.781 342.180,239.510 342.348 C 238.871 342.742,237.434 342.220,237.750 341.708 C 237.907 341.454,237.829 341.398,237.553 341.569 C 236.984 341.920,234.293 341.074,234.567 340.630 C 234.677 340.452,234.387 340.406,233.924 340.528 C 233.384 340.669,233.173 340.599,233.338 340.332 C 233.503 340.066,233.292 339.996,232.752 340.137 C 232.288 340.258,232.008 340.198,232.128 340.003 C 232.249 339.808,231.881 339.629,231.310 339.606 C 230.740 339.582,228.164 339.000,225.586 338.312 C 220.912 337.065,212.441 336.410,208.203 336.968 " stroke="none" fill="#252822" fill-rule="evenodd"></path><path id="path1" d="M206.239 307.715 L 203.711 310.352 206.348 307.824 C 207.798 306.434,208.984 305.247,208.984 305.187 C 208.984 304.900,208.587 305.266,206.239 307.715 M78.032 316.683 C 78.518 316.776,79.221 316.772,79.594 316.675 C 79.968 316.577,79.570 316.500,78.711 316.505 C 77.852 316.509,77.546 316.589,78.032 316.683 M212.402 336.220 C 213.101 336.307,214.243 336.307,214.941 336.220 C 215.640 336.133,215.068 336.063,213.672 336.063 C 212.275 336.063,211.704 336.133,212.402 336.220 M119.043 342.463 C 119.526 342.556,120.317 342.556,120.801 342.463 C 121.284 342.370,120.889 342.294,119.922 342.294 C 118.955 342.294,118.560 342.370,119.043 342.463 M161.426 348.722 C 162.231 348.806,163.550 348.806,164.355 348.722 C 165.161 348.638,164.502 348.569,162.891 348.569 C 161.279 348.569,160.620 348.638,161.426 348.722 M120.801 349.113 C 121.606 349.197,122.925 349.197,123.730 349.113 C 124.536 349.028,123.877 348.959,122.266 348.959 C 120.654 348.959,119.995 349.028,120.801 349.113 " stroke="none" fill="#8c8883" fill-rule="evenodd"></path><path id="path2" d="M293.280 41.620 C 292.699 41.935,289.626 45.400,286.451 49.319 C 278.709 58.875,260.526 81.127,254.134 88.867 C 251.295 92.305,246.869 97.754,244.299 100.977 C 238.381 108.396,205.297 148.995,189.070 168.750 C 182.276 177.021,169.607 192.483,160.917 203.108 C 140.505 228.066,141.056 227.395,128.695 242.427 C 104.886 271.383,105.872 269.970,107.990 272.088 C 109.413 273.511,110.635 273.307,116.446 270.682 C 142.813 258.770,168.828 255.895,181.455 263.499 C 182.696 264.246,183.785 264.782,183.877 264.691 C 184.154 264.414,179.595 261.886,177.206 260.992 C 164.266 256.151,140.516 259.615,117.651 269.679 C 110.141 272.984,109.415 273.132,108.209 271.599 C 106.745 269.737,106.370 270.261,128.461 243.359 C 133.489 237.236,138.239 231.446,139.016 230.493 C 139.794 229.539,141.396 227.602,142.578 226.188 C 144.984 223.309,145.108 223.158,155.106 210.943 C 162.363 202.077,164.274 199.734,172.641 189.453 C 175.176 186.338,179.854 180.625,183.037 176.758 C 186.220 172.891,195.077 162.080,202.721 152.734 C 225.531 124.843,229.652 119.783,245.348 100.391 C 253.757 90.001,261.645 80.338,276.782 61.884 C 279.588 58.463,283.790 53.291,286.120 50.391 C 291.518 43.669,293.229 41.888,294.568 41.594 C 296.017 41.275,297.968 42.323,298.286 43.591 C 298.528 44.555,292.966 62.022,288.471 74.414 C 287.536 76.992,286.285 80.545,285.692 82.310 L 284.614 85.519 285.864 90.709 C 296.056 133.019,288.254 180.896,263.986 224.949 C 245.920 257.744,230.884 271.898,203.711 281.690 C 202.637 282.077,202.062 282.400,202.434 282.408 C 204.979 282.461,220.435 274.985,227.458 270.303 C 237.642 263.514,244.881 255.932,253.742 242.773 C 286.181 194.598,298.056 138.276,286.078 89.404 L 285.060 85.253 287.306 79.052 C 290.923 69.064,298.828 45.205,298.828 44.276 C 298.828 41.604,295.896 40.200,293.280 41.620 M283.507 62.793 C 274.531 73.660,265.015 85.291,257.220 94.922 C 252.265 101.045,245.668 109.150,242.562 112.933 C 239.456 116.716,233.750 123.727,229.883 128.513 C 226.016 133.299,221.533 138.835,219.922 140.815 C 218.311 142.796,214.883 147.022,212.305 150.208 C 207.370 156.304,198.526 167.067,188.086 179.680 C 180.489 188.858,171.913 199.304,165.312 207.422 C 162.604 210.752,156.333 218.398,151.377 224.414 C 146.420 230.430,141.734 236.143,140.964 237.109 C 140.193 238.076,135.392 244.022,130.293 250.323 C 125.195 256.624,121.094 261.850,121.181 261.936 C 121.267 262.023,125.546 256.878,130.689 250.504 C 135.831 244.130,143.732 234.422,148.245 228.930 C 152.759 223.439,158.381 216.572,160.739 213.672 C 167.723 205.082,184.241 184.991,194.140 173.047 C 199.215 166.924,210.554 153.037,219.337 142.188 C 228.121 131.338,238.755 118.242,242.970 113.086 C 247.185 107.930,254.773 98.613,259.833 92.383 C 264.893 86.152,272.587 76.748,276.931 71.484 C 284.930 61.792,286.532 59.766,286.194 59.766 C 286.092 59.766,284.882 61.128,283.507 62.793 M286.185 61.793 C 285.847 62.719,284.313 66.992,282.777 71.289 C 269.243 109.146,247.876 157.910,229.202 193.555 C 218.453 214.071,206.199 234.173,193.958 251.370 C 190.799 255.807,188.283 259.507,188.367 259.591 C 188.450 259.674,189.552 258.298,190.814 256.532 C 215.391 222.139,233.433 189.441,257.136 136.328 C 267.086 114.035,287.831 61.138,286.965 60.272 C 286.875 60.182,286.524 60.867,286.185 61.793 M280.204 96.562 C 279.989 96.842,278.971 99.180,277.944 101.758 C 261.602 142.764,233.758 200.758,219.523 223.438 C 218.512 225.049,215.645 229.636,213.152 233.631 C 203.531 249.051,194.555 261.851,182.361 277.539 C 181.025 279.258,180.329 280.318,180.815 279.894 C 183.171 277.839,196.927 259.124,205.086 246.875 C 225.942 215.560,236.883 195.136,260.640 143.164 C 267.305 128.583,277.715 104.102,280.222 97.112 C 280.618 96.008,280.777 96.389,281.603 100.417 C 286.996 126.723,283.077 164.598,271.840 194.779 C 259.438 228.090,237.408 258.917,217.791 270.411 C 210.893 274.453,205.653 276.145,190.880 279.099 C 185.111 280.253,180.290 281.298,180.166 281.423 C 179.886 281.702,180.473 281.599,191.602 279.420 C 213.208 275.189,222.765 270.123,235.934 255.920 C 262.062 227.740,279.490 186.482,283.977 142.188 C 285.569 126.476,282.816 93.183,280.204 96.562 M158.398 253.002 C 151.541 253.601,141.860 255.499,134.570 257.676 C 129.304 259.248,121.723 262.087,122.013 262.378 C 122.118 262.483,123.756 261.956,125.653 261.208 C 148.844 252.059,171.179 250.935,184.721 258.235 C 186.307 259.090,187.688 259.708,187.788 259.608 C 188.173 259.223,178.950 255.114,175.977 254.346 C 170.738 252.992,164.219 252.494,158.398 253.002 M177.688 273.535 C 174.431 277.886,171.650 281.578,171.507 281.740 C 171.364 281.901,167.214 282.388,162.284 282.820 C 157.354 283.253,149.541 283.949,144.922 284.367 C 140.303 284.785,129.668 285.666,121.289 286.323 C 99.943 287.999,99.562 288.086,97.999 291.620 C 95.325 297.664,107.415 311.709,119.529 316.631 C 123.328 318.175,122.756 317.692,118.164 315.481 C 104.870 309.078,94.700 295.636,99.238 290.467 C 101.165 288.273,101.284 288.252,120.313 286.883 C 127.416 286.372,160.251 283.524,167.381 282.800 C 171.979 282.334,170.928 283.222,178.004 273.828 C 183.738 266.217,184.158 265.625,183.820 265.625 C 183.703 265.625,180.944 269.185,177.688 273.535 M213.867 281.907 C 209.735 282.263,202.167 283.252,201.974 283.460 C 201.855 283.589,202.549 283.584,203.516 283.449 C 207.071 282.953,217.771 282.031,219.976 282.031 C 224.275 282.031,224.396 283.871,220.468 289.550 C 201.883 316.420,187.495 324.195,168.555 317.601 C 157.575 313.779,148.731 313.886,139.453 317.953 C 126.293 323.722,119.830 325.053,110.742 323.863 C 105.789 323.214,103.034 322.446,93.359 319.015 C 79.680 314.163,67.846 315.606,52.090 324.048 C 47.802 326.345,46.521 326.599,45.312 325.391 C 43.146 323.224,44.776 320.965,50.527 318.165 C 69.941 308.712,81.647 307.857,98.866 314.636 C 107.733 318.127,109.062 318.431,116.016 318.558 L 122.070 318.668 116.406 318.384 C 109.619 318.044,107.287 317.485,99.000 314.215 C 83.676 308.168,75.028 308.063,59.766 313.738 C 46.006 318.855,42.127 321.944,44.950 325.533 C 46.043 326.923,47.678 326.875,50.391 325.373 C 56.453 322.018,68.252 317.637,73.438 316.815 C 80.207 315.741,86.203 316.759,97.461 320.892 C 112.686 326.481,122.132 325.987,138.672 318.734 C 148.665 314.352,156.601 314.089,167.725 317.771 C 187.861 324.435,201.395 317.454,220.205 290.702 C 226.112 282.300,225.129 280.935,213.867 281.907 M162.695 288.666 C 159.258 289.038,157.033 289.368,157.751 289.398 C 159.961 289.491,168.533 288.599,168.926 288.235 C 169.130 288.045,169.218 287.913,169.121 287.940 C 169.024 287.967,166.133 288.294,162.695 288.666 M209.570 288.524 C 197.204 290.236,172.377 292.364,171.173 291.815 C 170.679 291.590,170.026 290.835,169.723 290.136 C 169.287 289.133,169.168 289.042,169.156 289.703 C 169.121 291.609,170.392 292.385,173.501 292.358 C 180.720 292.294,212.650 289.005,213.457 288.242 C 213.661 288.049,213.749 287.911,213.652 287.937 C 213.556 287.962,211.719 288.226,209.570 288.524 M210.524 292.860 C 194.753 312.797,185.741 317.152,170.703 312.104 C 158.186 307.902,147.681 307.973,136.670 312.337 C 129.173 315.308,117.912 311.677,109.934 303.716 C 107.677 301.464,103.906 296.160,103.906 295.238 C 103.906 294.702,107.223 294.328,135.938 291.619 C 154.629 289.857,156.454 289.664,155.640 289.540 C 155.198 289.473,150.979 289.782,146.265 290.226 C 141.552 290.671,132.965 291.472,127.182 292.007 C 121.400 292.541,114.193 293.240,111.167 293.559 C 108.140 293.878,105.478 294.139,105.250 294.140 C 99.925 294.150,109.834 306.097,118.945 310.650 C 125.816 314.084,131.436 314.756,136.728 312.776 C 148.475 308.381,158.327 308.322,170.598 312.572 C 184.083 317.244,191.682 314.551,204.417 300.586 C 208.709 295.881,214.232 289.102,213.981 288.850 C 213.893 288.763,212.338 290.567,210.524 292.860 M236.719 307.794 C 229.140 309.177,220.391 312.646,204.827 320.438 C 189.537 328.093,180.633 330.581,172.026 329.603 C 164.104 328.703,156.915 330.434,143.898 336.373 C 133.078 341.310,128.255 342.578,120.290 342.578 C 115.702 342.578,114.453 343.207,114.453 345.517 C 114.453 351.349,128.546 349.910,145.117 342.387 C 158.492 336.315,162.262 335.332,171.680 335.461 C 186.017 335.657,192.985 333.576,215.374 322.409 C 239.396 310.428,247.782 310.250,271.902 321.205 C 290.443 329.627,321.351 330.106,336.826 322.211 C 343.841 318.632,340.111 314.405,332.415 317.213 C 314.266 323.837,294.887 323.414,276.309 315.989 C 255.162 307.538,247.178 305.885,236.719 307.794 M251.696 308.219 C 256.402 309.164,264.614 311.887,274.718 315.852 C 295.131 323.865,312.065 324.482,331.732 317.933 C 336.949 316.195,337.967 316.092,339.063 317.188 C 341.728 319.853,336.404 322.822,323.633 325.794 C 308.066 329.417,288.042 327.547,272.673 321.035 C 245.539 309.538,240.268 309.694,213.672 322.779 C 192.261 333.312,184.727 335.540,172.461 334.963 C 163.053 334.521,158.962 335.688,139.799 344.285 C 128.130 349.519,113.456 349.909,115.032 344.943 C 115.591 343.182,116.224 342.969,120.883 342.969 C 128.625 342.969,133.739 341.616,143.750 336.920 C 156.159 331.099,164.129 329.191,172.131 330.128 C 180.495 331.107,188.684 328.784,205.078 320.781 C 230.667 308.289,239.796 305.829,251.696 308.219 M206.990 336.718 C 201.479 337.597,193.050 340.131,185.156 343.280 C 176.281 346.822,168.205 348.828,162.828 348.828 C 159.125 348.828,158.203 349.452,158.203 351.959 C 158.203 356.222,166.981 355.942,180.469 351.249 C 213.214 339.855,212.272 339.925,234.393 347.243 C 249.206 352.143,256.471 353.574,265.931 353.452 L 270.898 353.387 264.258 353.097 C 254.235 352.658,248.678 351.507,235.200 347.078 C 213.060 339.803,210.108 339.900,186.655 348.664 C 169.697 355.002,158.594 356.314,158.594 351.979 C 158.594 349.758,159.475 349.219,163.107 349.219 C 169.045 349.219,175.515 347.503,188.815 342.399 C 199.388 338.343,205.579 336.990,213.672 336.968 C 222.625 336.943,224.894 337.481,242.044 343.691 C 255.098 348.417,267.329 349.005,280.404 345.535 C 284.830 344.360,286.122 344.432,286.787 345.892 C 288.046 348.654,285.782 350.082,277.148 351.971 C 275.430 352.347,274.463 352.670,275.000 352.689 C 277.838 352.788,285.656 350.286,286.714 348.940 C 289.789 345.032,286.432 343.359,279.388 345.290 C 267.977 348.419,254.928 347.799,242.969 343.559 C 240.928 342.835,236.973 341.427,234.180 340.430 C 224.237 336.881,214.391 335.536,206.990 336.718 M271.782 353.011 C 272.268 353.104,272.971 353.101,273.344 353.003 C 273.718 352.905,273.320 352.829,272.461 352.833 C 271.602 352.837,271.296 352.917,271.782 353.011 " stroke="none" fill="#050504" fill-rule="evenodd"></path><path id="path3" d="M244.438 306.917 C 244.924 307.010,245.627 307.007,246.001 306.909 C 246.374 306.811,245.977 306.735,245.117 306.739 C 244.258 306.743,243.952 306.823,244.438 306.917 M131.157 313.558 C 131.643 313.651,132.346 313.647,132.719 313.550 C 133.093 313.452,132.695 313.375,131.836 313.380 C 130.977 313.384,130.671 313.464,131.157 313.558 M304.004 328.394 C 304.380 328.493,304.995 328.493,305.371 328.394 C 305.747 328.296,305.439 328.216,304.688 328.216 C 303.936 328.216,303.628 328.296,304.004 328.394 M307.329 328.401 C 307.815 328.495,308.518 328.491,308.891 328.393 C 309.265 328.296,308.867 328.219,308.008 328.224 C 307.148 328.228,306.843 328.308,307.329 328.401 M266.704 353.792 C 267.190 353.885,267.893 353.882,268.266 353.784 C 268.640 353.686,268.242 353.610,267.383 353.614 C 266.523 353.618,266.218 353.698,266.704 353.792 " stroke="none" fill="#57544f" fill-rule="evenodd"></path><path id="path4" d="M154.004 308.863 C 154.380 308.961,154.995 308.961,155.371 308.863 C 155.747 308.765,155.439 308.684,154.688 308.684 C 153.936 308.684,153.628 308.765,154.004 308.863 M264.160 353.785 C 264.536 353.883,265.151 353.883,265.527 353.785 C 265.903 353.687,265.596 353.606,264.844 353.606 C 264.092 353.606,263.784 353.687,264.160 353.785 " stroke="none" fill="#43443c" fill-rule="evenodd"></path></g></svg>